<svg id="visual" viewBox="0 0 1920 540" width="1920" height="540" xmlns="http://www.w3.org/2000/svg" xmlns:xlink="http://www.w3.org/1999/xlink" version="1.1"><rect x="0" y="0" width="1920" height="540" fill="#000000"></rect><path d="M0 355L32 346.7C64 338.3 128 321.7 192 322.8C256 324 320 343 384 361.5C448 380 512 398 576 402.5C640 407 704 398 768 388C832 378 896 367 960 360C1024 353 1088 350 1152 358.8C1216 367.7 1280 388.3 1344 386.2C1408 384 1472 359 1536 344.7C1600 330.3 1664 326.7 1728 336.8C1792 347 1856 371 1888 383L1920 395L1920 0L1888 0C1856 0 1792 0 1728 0C1664 0 1600 0 1536 0C1472 0 1408 0 1344 0C1280 0 1216 0 1152 0C1088 0 1024 0 960 0C896 0 832 0 768 0C704 0 640 0 576 0C512 0 448 0 384 0C320 0 256 0 192 0C128 0 64 0 32 0L0 0Z" fill="#50a29e"></path><path d="M0 285L32 287.2C64 289.3 128 293.7 192 302.3C256 311 320 324 384 321C448 318 512 299 576 279.5C640 260 704 240 768 246.7C832 253.3 896 286.7 960 301.2C1024 315.7 1088 311.3 1152 317C1216 322.7 1280 338.3 1344 324.2C1408 310 1472 266 1536 251.3C1600 236.7 1664 251.3 1728 261.5C1792 271.7 1856 277.3 1888 280.2L1920 283L1920 0L1888 0C1856 0 1792 0 1728 0C1664 0 1600 0 1536 0C1472 0 1408 0 1344 0C1280 0 1216 0 1152 0C1088 0 1024 0 960 0C896 0 832 0 768 0C704 0 640 0 576 0C512 0 448 0 384 0C320 0 256 0 192 0C128 0 64 0 32 0L0 0Z" fill="#8ec1bd"></path><path d="M0 127L32 139.2C64 151.3 128 175.7 192 183.7C256 191.7 320 183.3 384 176.8C448 170.3 512 165.7 576 169.2C640 172.7 704 184.3 768 192C832 199.7 896 203.3 960 204.5C1024 205.7 1088 204.3 1152 213.2C1216 222 1280 241 1344 245.2C1408 249.3 1472 238.7 1536 227.7C1600 216.7 1664 205.3 1728 198.5C1792 191.7 1856 189.3 1888 188.2L1920 187L1920 0L1888 0C1856 0 1792 0 1728 0C1664 0 1600 0 1536 0C1472 0 1408 0 1344 0C1280 0 1216 0 1152 0C1088 0 1024 0 960 0C896 0 832 0 768 0C704 0 640 0 576 0C512 0 448 0 384 0C320 0 256 0 192 0C128 0 64 0 32 0L0 0Z" fill="#c6e0dd"></path><path d="M0 38L32 39C64 40 128 42 192 62.8C256 83.7 320 123.3 384 142.3C448 161.3 512 159.7 576 148.5C640 137.3 704 116.7 768 104.3C832 92 896 88 960 92.7C1024 97.3 1088 110.7 1152 121.3C1216 132 1280 140 1344 145.2C1408 150.3 1472 152.7 1536 136.8C1600 121 1664 87 1728 72.3C1792 57.7 1856 62.3 1888 64.7L1920 67L1920 0L1888 0C1856 0 1792 0 1728 0C1664 0 1600 0 1536 0C1472 0 1408 0 1344 0C1280 0 1216 0 1152 0C1088 0 1024 0 960 0C896 0 832 0 768 0C704 0 640 0 576 0C512 0 448 0 384 0C320 0 256 0 192 0C128 0 64 0 32 0L0 0Z" fill="#ffffff"></path></svg>