<svg id="visual" viewBox="0 0 1920 540" width="1920" height="540" xmlns="http://www.w3.org/2000/svg" xmlns:xlink="http://www.w3.org/1999/xlink" version="1.1"><rect x="0" y="0" width="1920" height="540" fill="#000000"></rect><path d="M0 264L45.7 264.8C91.3 265.7 182.7 267.3 274.2 262.8C365.7 258.3 457.3 247.7 548.8 229.7C640.3 211.7 731.7 186.3 823 171.7C914.3 157 1005.7 153 1097 157C1188.3 161 1279.7 173 1371.2 185.5C1462.7 198 1554.3 211 1645.8 217.5C1737.3 224 1828.7 224 1874.3 224L1920 224L1920 541L1874.3 541C1828.7 541 1737.3 541 1645.8 541C1554.3 541 1462.7 541 1371.2 541C1279.7 541 1188.3 541 1097 541C1005.7 541 914.3 541 823 541C731.7 541 640.3 541 548.8 541C457.3 541 365.7 541 274.2 541C182.7 541 91.3 541 45.7 541L0 541Z" fill="#50a29e"></path><path d="M0 305L45.7 297.3C91.3 289.7 182.7 274.3 274.2 276C365.7 277.7 457.3 296.3 548.8 286.8C640.3 277.3 731.7 239.7 823 221C914.3 202.3 1005.7 202.7 1097 211.3C1188.3 220 1279.7 237 1371.2 257.8C1462.7 278.7 1554.3 303.3 1645.8 294.3C1737.3 285.3 1828.7 242.7 1874.3 221.3L1920 200L1920 541L1874.3 541C1828.7 541 1737.3 541 1645.8 541C1554.3 541 1462.7 541 1371.2 541C1279.7 541 1188.3 541 1097 541C1005.7 541 914.3 541 823 541C731.7 541 640.3 541 548.8 541C457.3 541 365.7 541 274.2 541C182.7 541 91.3 541 45.7 541L0 541Z" fill="#7fb9b5"></path><path d="M0 362L45.7 359.5C91.3 357 182.7 352 274.2 344.3C365.7 336.7 457.3 326.3 548.8 317.8C640.3 309.3 731.7 302.7 823 313.7C914.3 324.7 1005.7 353.3 1097 363.2C1188.3 373 1279.7 364 1371.2 352.2C1462.7 340.3 1554.3 325.7 1645.8 319.5C1737.3 313.3 1828.7 315.7 1874.3 316.8L1920 318L1920 541L1874.3 541C1828.7 541 1737.3 541 1645.8 541C1554.3 541 1462.7 541 1371.2 541C1279.7 541 1188.3 541 1097 541C1005.7 541 914.3 541 823 541C731.7 541 640.3 541 548.8 541C457.3 541 365.7 541 274.2 541C182.7 541 91.3 541 45.7 541L0 541Z" fill="#aad0cd"></path><path d="M0 375L45.7 381.8C91.3 388.7 182.7 402.3 274.2 409.8C365.7 417.3 457.3 418.7 548.8 412.8C640.3 407 731.7 394 823 389.3C914.3 384.7 1005.7 388.3 1097 382.3C1188.3 376.3 1279.7 360.7 1371.2 357.2C1462.7 353.7 1554.3 362.3 1645.8 364.2C1737.3 366 1828.7 361 1874.3 358.5L1920 356L1920 541L1874.3 541C1828.7 541 1737.3 541 1645.8 541C1554.3 541 1462.7 541 1371.2 541C1279.7 541 1188.3 541 1097 541C1005.7 541 914.3 541 823 541C731.7 541 640.3 541 548.8 541C457.3 541 365.7 541 274.2 541C182.7 541 91.3 541 45.7 541L0 541Z" fill="#d4e7e6"></path><path d="M0 421L45.7 425.7C91.3 430.3 182.7 439.7 274.2 452.2C365.7 464.7 457.3 480.3 548.8 483.5C640.3 486.7 731.7 477.3 823 476.2C914.3 475 1005.7 482 1097 486.7C1188.3 491.3 1279.7 493.7 1371.2 492.2C1462.7 490.7 1554.3 485.3 1645.8 484.2C1737.3 483 1828.7 486 1874.3 487.5L1920 489L1920 541L1874.3 541C1828.7 541 1737.3 541 1645.8 541C1554.3 541 1462.7 541 1371.2 541C1279.7 541 1188.3 541 1097 541C1005.7 541 914.3 541 823 541C731.7 541 640.3 541 548.8 541C457.3 541 365.7 541 274.2 541C182.7 541 91.3 541 45.7 541L0 541Z" fill="#ffffff"></path></svg>